<?xml version="1.0" encoding="UTF-8" standalone="no"?>
<!-- Created with Inkscape (http://www.inkscape.org/) -->

<svg
   width="15.625802mm"
   height="20.725048mm"
   viewBox="0 0 15.625802 20.725048"
   version="1.1"
   id="svg5"
   xml:space="preserve"
   sodipodi:docname="examIcon.svg"
   inkscape:version="1.2.2 (732a01da63, 2022-12-09)"
   xmlns:inkscape="http://www.inkscape.org/namespaces/inkscape"
   xmlns:sodipodi="http://sodipodi.sourceforge.net/DTD/sodipodi-0.dtd"
   xmlns="http://www.w3.org/2000/svg"
   xmlns:svg="http://www.w3.org/2000/svg"><sodipodi:namedview
     id="namedview51"
     pagecolor="#ffffff"
     bordercolor="#000000"
     borderopacity="0.25"
     inkscape:showpageshadow="2"
     inkscape:pageopacity="0.0"
     inkscape:pagecheckerboard="0"
     inkscape:deskcolor="#d1d1d1"
     inkscape:document-units="mm"
     showgrid="false"
     inkscape:zoom="6.8730843"
     inkscape:cx="84.241656"
     inkscape:cy="62.635635"
     inkscape:window-width="1350"
     inkscape:window-height="1230"
     inkscape:window-x="787"
     inkscape:window-y="104"
     inkscape:window-maximized="0"
     inkscape:current-layer="g27271" /><defs
     id="defs2"><rect
       x="35.064316"
       y="74.784477"
       width="36.664761"
       height="10.766636"
       id="rect411" /></defs><g
     id="g2522"
     transform="matrix(0.6870248,0,0,0.6870248,-3.4533939,21.160047)"><g
       id="g27271"
       style="stroke-width:1.14552;stroke-dasharray:none"><path
         style="fill:none;fill-opacity:0.435986;stroke:#fdfdfd;stroke-width:1.02425;stroke-linecap:square;stroke-dasharray:none;stroke-opacity:1;paint-order:markers fill stroke;stop-color:#000000"
         d="M 19.514876,-30.031478 8.1999538,-30.287472 c 0,0 -2.76473,-0.0512 -2.457539,4.147098 0,0 -0.665582,20.3771076 0.40959,22.6298476 0,0 -0.255995,2.81594004 4.9662802,2.30395 h 13.055681 c 0,0 3.327915,0.0512 3.071925,-3.27672 L 26.7339,-22.710057 c 0,0 -4.351894,-5.32467 -7.219024,-7.321421 z"
         id="path576"
         inkscape:export-filename="examIconW.svg"
         inkscape:export-xdpi="96"
         inkscape:export-ydpi="96" /><path
         style="fill:none;fill-opacity:0.435986;stroke:#fdfdfd;stroke-width:1.02425;stroke-linecap:square;stroke-dasharray:none;stroke-opacity:1;paint-order:markers fill stroke;stop-color:#000000"
         d="m 19.505559,-29.980554 -0.07241,5.339939 c 0,0 -0.579248,2.498006 2.063571,2.244585 0,0 4.742591,-0.0543 5.122723,-0.362029 0,0 -6.317419,-7.150089 -7.113884,-7.222495 z"
         id="path578" /><path
         style="fill:none;fill-opacity:0.435986;stroke:#fdfdfd;stroke-width:1.02425;stroke-linecap:round;stroke-dasharray:none;stroke-opacity:1;paint-order:markers fill stroke;stop-color:#000000"
         d="m 20.555373,-27.015093 5e-6,2.534208 c 0,0 -0.126711,0.923176 0.724062,0.705958 l 2.226478,-0.01811"
         id="path1188-2" /><path
         style="fill:none;fill-opacity:0.435986;stroke:#fdfdfd;stroke-width:1.02425;stroke-linecap:round;stroke-dasharray:none;stroke-opacity:1;paint-order:markers fill stroke;stop-color:#000000"
         d="m 24.379844,-23.728484 3.15e-4,-0.0034"
         id="path1212"
         sodipodi:nodetypes="cc" /><path
         style="fill:none;fill-opacity:0.435986;stroke:#fdfdfd;stroke-width:1.02425;stroke-linecap:square;stroke-dasharray:none;stroke-opacity:1;paint-order:markers fill stroke;stop-color:#000000"
         d="m 13.048125,-28.030675 -3.9167085,-0.0512 c 0,0 -1.535963,-0.511987 -1.254367,2.252744 l -0.204795,4.812683"
         id="path1214" /><g
         id="g3018"
         style="stroke:#1de8ff;stroke-opacity:1"><g
           aria-label="20/20"
           transform="matrix(0.5504618,0,0,0.5504618,-0.12833895,-48.461021)"
           id="text409"
           style="font-size:5.33333px;line-height:0.8;font-family:'League Script Thin';-inkscape-font-specification:'League Script Thin, ';white-space:pre;shape-inside:url(#rect411);fill:#e9fcff;fill-opacity:1;stroke:#1de8ff;stroke-width:0;stroke-linecap:round;stroke-opacity:1;paint-order:markers stroke fill;stop-color:#000000"><path
             d="m 37.048452,75.457156 q 0,0.16 -0.4,0.352 -0.394666,0.192 -0.757333,0.192 -0.362666,0 -0.362666,-0.250667 0,-0.218666 0.272,-0.464 0.272,-0.250666 0.703999,-0.421333 0.437333,-0.170666 0.858666,-0.170666 0.245334,0 0.4,0.101333 0.16,0.101333 0.16,0.293333 0,0.192 -0.09067,0.368 -0.09067,0.170666 -0.213333,0.309333 -0.122666,0.133333 -0.352,0.314667 -0.229333,0.181333 -0.394666,0.293333 -0.16,0.106666 -0.458666,0.303999 -0.298667,0.192 -0.394667,0.261334 -0.096,0.064 -0.170666,0.122666 -0.07467,0.05333 -0.282667,0.213333 -0.202666,0.154667 -0.362666,0.293334 -0.432,0.362666 -0.522667,0.570666 -0.01067,0.02667 -0.01067,0.048 0,0.03733 0.03733,0.03733 0.0053,0 0.117333,-0.02133 0.106667,-0.02667 0.277333,-0.05867 0.176,-0.032 0.378667,-0.064 0.496,-0.08 0.789333,-0.08 0.293333,0 0.474666,0.064 0.186667,0.05867 0.186667,0.154667 0,0.096 -0.05867,0.096 l -0.096,-0.02667 q -0.288,-0.096 -0.730666,-0.096 -0.789333,0 -1.343999,0.133334 l -0.192,0.04267 q -0.048,0.016 -0.08,0.016 -0.08533,0 -0.08533,-0.08533 0,-0.154667 0.421333,-0.528 0.325333,-0.293333 0.613333,-0.501333 0.447999,-0.32 0.533333,-0.378666 l 0.05333,-0.03733 q 0.469333,-0.303999 0.810666,-0.575999 0.346667,-0.277333 0.453333,-0.394667 l 0.106667,-0.122666 q 0.330666,-0.352 0.330666,-0.613333 0,-0.341333 -0.463999,-0.341333 -0.458667,0 -0.949333,0.314666 -0.485333,0.309333 -0.485333,0.581333 0,0.176 0.234666,0.176 0.24,0 0.501333,-0.112 0.261333,-0.112 0.453333,-0.32 0.03733,-0.032 0.064,-0.032 0.02667,0 0.02667,0.04267 z"
             style="font-family:'Mr De Haviland';-inkscape-font-specification:'Mr De Haviland';fill:#e9fcff;fill-opacity:1;stroke:#1de8ff;stroke-opacity:1"
             id="path3000" /><path
             d="m 39.960451,77.435821 q -0.357333,0.405333 -0.810666,0.672 -0.448,0.266666 -0.864,0.266666 -0.410666,0 -0.591999,-0.229333 -0.186667,-0.234666 -0.186667,-0.554666 0,-0.32 0.112,-0.688 0.106667,-0.367999 0.325333,-0.762666 0.218667,-0.394666 0.512,-0.725333 0.293333,-0.336 0.703999,-0.549333 0.416,-0.218666 0.864,-0.218666 0.768,0 0.768,0.874666 0,0.469333 -0.234667,0.986666 -0.234667,0.517333 -0.597333,0.927999 z m 0.64,-2.047998 q 0,-0.208 -0.08,-0.352 -0.08,-0.144 -0.197334,-0.197333 -0.197333,-0.08533 -0.325333,-0.08533 -0.303999,0 -0.602666,0.149334 -0.298666,0.149333 -0.544,0.394666 -0.24,0.245333 -0.453333,0.554666 -0.208,0.309333 -0.352,0.629333 -0.303999,0.682667 -0.303999,1.152 0,0.474666 0.266666,0.586666 0.128,0.048 0.32,0.048 0.464,0 1.007999,-0.485333 0.544,-0.490667 0.901333,-1.173333 0.362667,-0.682666 0.362667,-1.221332 z"
             style="font-family:'Mr De Haviland';-inkscape-font-specification:'Mr De Haviland';fill:#e9fcff;fill-opacity:1;stroke:#1de8ff;stroke-opacity:1"
             id="path3002" /><path
             d="m 40.184457,78.710487 q 0.03733,-0.05867 1.114666,-1.957332 1.082666,-1.903999 1.130666,-1.989332 0.048,-0.08533 0.101334,-0.08533 0.05867,0 0.05867,0.02667 0,0.02133 -2.250665,4.021331 -0.02133,0.04267 -0.06933,0.08533 -0.04267,0.048 -0.06933,0.048 -0.048,0 -0.048,-0.05333 0,-0.032 0.032,-0.096 z"
             style="font-family:'Mr De Haviland';-inkscape-font-specification:'Mr De Haviland';fill:#e9fcff;fill-opacity:1;stroke:#1de8ff;stroke-opacity:1"
             id="path3004" /><path
             d="m 44.461788,75.457156 q 0,0.16 -0.4,0.352 -0.394666,0.192 -0.757333,0.192 -0.362666,0 -0.362666,-0.250667 0,-0.218666 0.271999,-0.464 0.272,-0.250666 0.704,-0.421333 0.437333,-0.170666 0.858666,-0.170666 0.245333,0 0.4,0.101333 0.16,0.101333 0.16,0.293333 0,0.192 -0.09067,0.368 -0.09067,0.170666 -0.213333,0.309333 -0.122667,0.133333 -0.352,0.314667 -0.229333,0.181333 -0.394666,0.293333 -0.16,0.106666 -0.458667,0.303999 -0.298666,0.192 -0.394666,0.261334 -0.096,0.064 -0.170667,0.122666 -0.07467,0.05333 -0.282666,0.213333 -0.202667,0.154667 -0.362666,0.293334 -0.432,0.362666 -0.522667,0.570666 -0.01067,0.02667 -0.01067,0.048 0,0.03733 0.03733,0.03733 0.0053,0 0.117333,-0.02133 0.106667,-0.02667 0.277333,-0.05867 0.176,-0.032 0.378667,-0.064 0.495999,-0.08 0.789333,-0.08 0.293333,0 0.474666,0.064 0.186666,0.05867 0.186666,0.154667 0,0.096 -0.05867,0.096 l -0.096,-0.02667 q -0.288,-0.096 -0.730666,-0.096 -0.789333,0 -1.344,0.133334 l -0.191999,0.04267 q -0.048,0.016 -0.08,0.016 -0.08533,0 -0.08533,-0.08533 0,-0.154667 0.421333,-0.528 0.325334,-0.293333 0.613333,-0.501333 0.448,-0.32 0.533333,-0.378666 l 0.05333,-0.03733 q 0.469333,-0.303999 0.810666,-0.575999 0.346666,-0.277333 0.453333,-0.394667 l 0.106667,-0.122666 q 0.330666,-0.352 0.330666,-0.613333 0,-0.341333 -0.464,-0.341333 -0.458666,0 -0.949332,0.314666 -0.485333,0.309333 -0.485333,0.581333 0,0.176 0.234666,0.176 0.24,0 0.501333,-0.112 0.261333,-0.112 0.453333,-0.32 0.03733,-0.032 0.064,-0.032 0.02667,0 0.02667,0.04267 z"
             style="font-family:'Mr De Haviland';-inkscape-font-specification:'Mr De Haviland';fill:#e9fcff;fill-opacity:1;stroke:#1de8ff;stroke-opacity:1"
             id="path3006" /><path
             d="m 47.373787,77.435821 q -0.357333,0.405333 -0.810666,0.672 -0.448,0.266666 -0.863999,0.266666 -0.410667,0 -0.592,-0.229333 -0.186667,-0.234666 -0.186667,-0.554666 0,-0.32 0.112,-0.688 0.106667,-0.367999 0.325333,-0.762666 0.218667,-0.394666 0.512,-0.725333 0.293333,-0.336 0.704,-0.549333 0.416,-0.218666 0.863999,-0.218666 0.768,0 0.768,0.874666 0,0.469333 -0.234667,0.986666 -0.234666,0.517333 -0.597333,0.927999 z m 0.64,-2.047998 q 0,-0.208 -0.08,-0.352 -0.08,-0.144 -0.197333,-0.197333 -0.197333,-0.08533 -0.325333,-0.08533 -0.304,0 -0.602667,0.149334 -0.298666,0.149333 -0.543999,0.394666 -0.24,0.245333 -0.453333,0.554666 -0.208,0.309333 -0.352,0.629333 -0.304,0.682667 -0.304,1.152 0,0.474666 0.266666,0.586666 0.128,0.048 0.32,0.048 0.464,0 1.008,-0.485333 0.543999,-0.490667 0.901332,-1.173333 0.362667,-0.682666 0.362667,-1.221332 z"
             style="font-family:'Mr De Haviland';-inkscape-font-specification:'Mr De Haviland';fill:#e9fcff;fill-opacity:1;stroke:#1de8ff;stroke-opacity:1"
             id="path3008" /></g><path
           style="fill:#e9fcff;fill-opacity:1;stroke:#e9fcff;stroke-width:0.0727776;stroke-linecap:round;stroke-dasharray:none;stroke-opacity:1;paint-order:markers fill stroke;stop-color:#000000"
           d="m 18.706181,-4.8827564 7.657525,-0.00593"
           id="path2120"
           sodipodi:nodetypes="cc" /></g><path
         style="fill:none;fill-opacity:1;stroke:#fdfdfd;stroke-width:1.02425;stroke-linecap:round;stroke-dasharray:none;stroke-opacity:1;paint-order:markers fill stroke;stop-color:#000000"
         d="m 14.36314,-19.166393 c 0,0 9.932554,-0.153596 10.137349,0.102397"
         id="path2176" /><path
         style="fill:none;fill-opacity:1;stroke:#fdfdfd;stroke-width:1.02425;stroke-linecap:round;stroke-dasharray:none;stroke-opacity:1;paint-order:markers fill stroke;stop-color:#000000"
         d="m 9.652855,-19.217592 c 0,0 0.716782,1.535963 1.177573,1.228775 0,0 1.894354,-2.201551 1.843153,-2.611141"
         id="path2178" /><path
         style="fill:none;fill-opacity:1;stroke:#fdfdfd;stroke-width:1.02425;stroke-linecap:round;stroke-dasharray:none;stroke-opacity:1;paint-order:markers fill stroke;stop-color:#000000"
         d="m 14.36314,-15.019294 c 0,0 9.932554,-0.15358 10.137349,0.10241"
         id="path2176-0" /><path
         style="fill:none;fill-opacity:1;stroke:#fdfdfd;stroke-width:1.02425;stroke-linecap:round;stroke-dasharray:none;stroke-opacity:1;paint-order:markers fill stroke;stop-color:#000000"
         d="m 9.652855,-15.070484 c 0,0 0.716782,1.53597 1.177573,1.22877 0,0 1.894354,-2.20155 1.843153,-2.61115"
         id="path2178-5" /><path
         style="fill:none;fill-opacity:1;stroke:#fdfdfd;stroke-width:1.02425;stroke-linecap:round;stroke-dasharray:none;stroke-opacity:1;paint-order:markers fill stroke;stop-color:#000000"
         d="m 14.36314,-11.097033 c 0,0 9.932554,-0.15358 10.137349,0.10241"
         id="path2176-0-0" /><path
         style="fill:none;fill-opacity:1;stroke:#fdfdfd;stroke-width:1.02425;stroke-linecap:round;stroke-dasharray:none;stroke-opacity:1;paint-order:markers fill stroke;stop-color:#000000"
         d="m 9.652855,-11.148223 c 0,0 0.716782,1.5359695 1.177573,1.2287695 0,0 1.894354,-2.2015495 1.843153,-2.6111495"
         id="path2178-5-6" /><path
         style="fill:none;fill-opacity:1;stroke:#fdfdfd;stroke-width:1.02425;stroke-linecap:round;stroke-dasharray:none;stroke-opacity:1;paint-order:markers fill stroke;stop-color:#000000"
         d="m 15.048344,-2.8073264 c 1.03e-4,0 9.979549,0.14508 10.173551,-0.006"
         id="path2176-08-1" /></g></g></svg>
