<?xml version="1.0" encoding="UTF-8" standalone="no"?>
<!-- Created with Inkscape (http://www.inkscape.org/) -->

<svg
   width="144mm"
   height="23mm"
   viewBox="0 0 144 23"
   version="1.1"
   id="svg5"
   xml:space="preserve"
   sodipodi:docname="logoResult.svg"
   inkscape:version="1.2.2 (732a01da63, 2022-12-09)"
   xmlns:inkscape="http://www.inkscape.org/namespaces/inkscape"
   xmlns:sodipodi="http://sodipodi.sourceforge.net/DTD/sodipodi-0.dtd"
   xmlns="http://www.w3.org/2000/svg"
   xmlns:svg="http://www.w3.org/2000/svg"><sodipodi:namedview
     id="namedview51"
     pagecolor="#ffffff"
     bordercolor="#000000"
     borderopacity="0.25"
     inkscape:showpageshadow="2"
     inkscape:pageopacity="0.0"
     inkscape:pagecheckerboard="0"
     inkscape:deskcolor="#d1d1d1"
     inkscape:document-units="mm"
     showgrid="false"
     inkscape:zoom="0.85913554"
     inkscape:cx="168.19232"
     inkscape:cy="10.475646"
     inkscape:window-width="2560"
     inkscape:window-height="1377"
     inkscape:window-x="-8"
     inkscape:window-y="-8"
     inkscape:window-maximized="1"
     inkscape:current-layer="svg5" /><defs
     id="defs2"><rect
       x="-865.61853"
       y="-17.003222"
       width="412.71454"
       height="279.78027"
       id="rect1271" /><rect
       x="96.184746"
       y="124.60296"
       width="520.27203"
       height="86.347664"
       id="rect236" /><rect
       x="96.184746"
       y="124.60296"
       width="520.27203"
       height="86.347664"
       id="rect236-2" /></defs><g
     aria-label="   harma    "
     transform="matrix(0.26458333,0,0,0.26458333,-18.601862,-30.811216)"
     id="text234"
     style="font-size:85.3333px;line-height:0.8;font-family:Drugs;-inkscape-font-specification:Drugs;white-space:pre;shape-inside:url(#rect236);display:inline;fill:#17a2b8;stroke:#17a2b8;stroke-width:2.09764;stroke-linecap:square;paint-order:markers fill stroke;stop-color:#000000"><path
       d="m 163.59874,185.04794 h 2.56 v -32.42666 c 0,0 6.82666,-9.81333 17.06666,-9.81333 8.53332,0 14.93332,6.4 14.93332,14.93333 v 27.30666 h 2.56 v -27.30666 c 0,-9.81333 -6.82666,-16.63999 -17.49332,-16.63999 -10.24,0 -16.64,8.53333 -16.64,8.53333 h -0.42666 v -26.02666 h -2.56 z"
       id="path718" /><path
       d="m 248.93204,159.02128 c 0,-11.09333 -6.82667,-17.91999 -17.92,-17.91999 -9.38666,0 -14.93332,7.25333 -14.93332,7.25333 l 1.28,0.85333 c 0,0 5.11999,-6.4 13.65332,-6.4 9.38667,0 15.36,5.97333 15.36,16.21333 v 3.41333 c 0,0 -8.53333,-4.26666 -17.06666,-4.26666 -11.09333,0 -17.06666,5.97333 -17.06666,14.07999 0,8.10666 5.97333,14.07999 17.06666,14.07999 10.23999,0 17.06666,-8.95999 17.06666,-8.95999 h 0.42666 c 0,3.84 0.85334,7.68 0.85334,7.68 h 2.56 c 0,0 -1.28,-3.84 -1.28,-10.24 z m -19.62666,25.59999 c -9.38667,0 -14.50666,-5.12 -14.50666,-12.37333 0,-7.25333 5.11999,-12.37333 14.50666,-12.37333 8.53333,0 17.06666,4.69333 17.06666,4.69333 v 10.24 c 0,0 -6.82667,9.81333 -17.06666,9.81333 z"
       id="path720" /><path
       d="m 288.61206,141.95462 c 0,0 -2.13333,-0.85333 -5.54666,-0.85333 -9.38666,0 -15.36,8.95999 -15.36,8.95999 h -0.42666 c 0,-3.84 -0.85333,-7.67999 -0.85333,-7.67999 h -2.56 c 0,0 1.28,3.83999 1.28,10.23999 v 32.42666 h 2.55999 v -32.42666 c 0,0 5.97334,-9.38666 15.36,-9.38666 2.56,0 4.69333,0.85333 4.69333,0.85333 z"
       id="path722" /><path
       d="m 297.99875,185.04794 h 2.56 v -32.42666 c 0,0 5.97333,-9.81333 14.93333,-9.81333 6.82666,0 12.79999,5.97333 12.79999,14.93333 v 27.30666 h 2.56 v -27.30666 c 0,-1.70667 -0.42666,-4.26666 -0.42666,-4.26666 0,0 6.39999,-10.66667 15.35999,-10.66667 6.82666,0 12.79999,5.97333 12.79999,14.93333 v 27.30666 h 2.56 v -27.30666 c 0,-9.81333 -6.82666,-16.63999 -15.35999,-16.63999 -8.96,0 -15.44533,9.81333 -15.44533,9.81333 h -0.42666 c 0,0 -3.75467,-9.81333 -14.42133,-9.81333 -8.96,0 -14.93333,8.95999 -14.93333,8.95999 h -0.42666 c 0,-3.84 -0.85334,-7.67999 -0.85334,-7.67999 h -2.56 c 0,0 1.28,3.83999 1.28,10.23999 z"
       id="path724" /><path
       d="m 409.35873,159.02128 c 0,-11.09333 -6.82667,-17.91999 -17.92,-17.91999 -9.38666,0 -14.93332,7.25333 -14.93332,7.25333 l 1.28,0.85333 c 0,0 5.11999,-6.4 13.65332,-6.4 9.38667,0 15.36,5.97333 15.36,16.21333 v 3.41333 c 0,0 -8.53333,-4.26666 -17.06666,-4.26666 -11.09333,0 -17.06666,5.97333 -17.06666,14.07999 0,8.10666 5.97333,14.07999 17.06666,14.07999 10.23999,0 17.06666,-8.95999 17.06666,-8.95999 h 0.42666 c 0,3.84 0.85334,7.68 0.85334,7.68 h 2.55999 c 0,0 -1.27999,-3.84 -1.27999,-10.24 z m -19.62666,25.59999 c -9.38667,0 -14.50666,-5.12 -14.50666,-12.37333 0,-7.25333 5.11999,-12.37333 14.50666,-12.37333 8.53333,0 17.06666,4.69333 17.06666,4.69333 v 10.24 c 0,0 -6.82667,9.81333 -17.06666,9.81333 z"
       id="path726" /></g><g
     aria-label="   uiz"
     transform="matrix(0.26458333,0,0,0.26458333,72.316347,-30.797531)"
     id="text234-6"
     style="font-size:85.3333px;line-height:0.8;font-family:Drugs;-inkscape-font-specification:Drugs;white-space:pre;shape-inside:url(#rect236-2);display:inline;fill:#17a2b8;stroke:#17a2b8;stroke-width:2.09764;stroke-linecap:square;paint-order:markers fill stroke;stop-color:#000000"><path
       d="m 200.71872,142.38129 h -2.56 v 32.42665 c 0,0 -6.82666,9.81333 -17.06666,9.81333 -8.53333,0 -14.93332,-6.4 -14.93332,-14.93333 v -27.30665 c 0,0 -2.56,0 -2.56,0 v 27.30665 c 0,9.81333 6.82666,16.63999 17.49332,16.63999 10.24,0 17.06666,-8.95999 17.06666,-8.95999 h 0.42667 c 0,3.84 0.85333,7.68 0.85333,7.68 h 2.56 c 0,0 -1.28,-3.84 -1.28,-10.24 z"
       id="path729" /><path
       d="m 220.3454,142.38129 h -2.56 v 42.66665 h 2.56 z m 1.28,-15.36 c 0,-1.28 -1.28,-2.56 -2.56,-2.56 -1.28,0 -2.56,1.28 -2.56,2.56 0,1.28 1.28,2.56 2.56,2.56 1.28,0 2.56,-1.28 2.56,-2.56 z"
       id="path731" /><path
       d="m 265.57201,142.38129 h -33.27999 v 1.70666 h 30.29333 v 0.42667 l -31.99999,38.39998 v 2.13334 h 35.41332 l 0.42666,-1.70667 h -32.85332 v -0.42667 l 31.99999,-38.39998 z"
       id="path733" /></g><g
     id="g23346"
     transform="translate(-64.513192,-83.444128)"><path
       d="m 72.570025,84.944692 c -4.660876,0.0486 -6.663027,1.19523 -6.724643,3.85106 -0.06835,2.945694 1.793175,4.120892 6.545842,4.132454 l 3.152441,0.0076 -0.05818,-4.010501 -0.05821,-4.010515 z"
       style="fill:#f7867c;fill-opacity:1;stroke:none;stroke-width:0.227623;stroke-opacity:1"
       id="path3496" /><path
       d="m 78.185058,84.858529 c 4.227419,-0.110687 7.947503,1.246837 7.37811,3.896254 -0.867818,4.038014 -1.581865,4.035284 -6.948201,4.253571 l -2.857908,0.116253 -0.08177,-4.099136 -0.08175,-4.099152 z"
       style="fill:#e5e8e9;fill-opacity:1;stroke:none;stroke-width:0.218649;stroke-dasharray:none;stroke-opacity:1"
       id="path3496-6" /><path
       style="fill:none;fill-opacity:1;stroke:#000000;stroke-width:1.75279;stroke-linecap:round;stroke-dasharray:none;stroke-opacity:1;paint-order:markers fill stroke;stop-color:#000000"
       d="M 75.555023,85.050267 V 100.75623"
       id="path2702" /><path
       style="fill:none;fill-opacity:1;stroke:#ffffff;stroke-width:0.623064;stroke-linecap:round;stroke-dasharray:none;stroke-opacity:1;paint-order:markers fill stroke;stop-color:#000000"
       d="m 74.061701,86.469124 -3.386091,-0.04159 c 0,0 -1.386118,-0.22872 -2.376203,0.790121"
       id="path5004" /><path
       style="fill:none;fill-opacity:1;stroke:#ffffff;stroke-width:0.631686;stroke-linecap:round;stroke-dasharray:none;stroke-opacity:1;paint-order:markers fill stroke;stop-color:#000000"
       d="m 67.659624,88.04 c 0,0 -0.177653,0.283879 -0.185323,0.808307"
       id="path5004-7" /><path
       style="fill:#000000;fill-opacity:0.217993;stroke:none;stroke-width:0.222671;stroke-linecap:round;stroke-dasharray:none;stroke-opacity:1;paint-order:markers fill stroke;stop-color:#000000"
       d="m 66.198931,91.383842 c 0,0 8.115285,0.802305 18.803229,0 0,0 -0.580136,2.028952 -3.525373,2.036619 -1.082564,0.0028 -11.032251,0.201853 -11.822658,0.04886 -2.920617,-0.565327 -3.08679,-1.067168 -3.455198,-2.085476 z"
       id="path6838" /><rect
       style="fill:none;fill-opacity:1;stroke:#000000;stroke-width:1.46163;stroke-linecap:round;stroke-dasharray:none;stroke-opacity:1;paint-order:markers fill stroke;stop-color:#000000"
       id="rect16739"
       width="19.973763"
       height="8.56429"
       x="65.774231"
       y="84.67675"
       ry="4.282145" /></g><g
     id="g22611"
     transform="translate(-62.877276,-80.785765)"><path
       style="fill:#b4b6b7;fill-opacity:1;stroke:#000000;stroke-width:1.45517;stroke-linecap:round;stroke-dasharray:none;stroke-opacity:1;paint-order:markers stroke fill;stop-color:#000000"
       d="m 161.96079,84.448439 c -3.48819,1.052438 -4.39115,5.162503 -4.39115,5.162503 0,0 -0.87696,4.28052 3.32524,7.847862 4.20221,3.567336 8.46489,2.070874 9.34161,1.572045 0.87671,-0.49882 2.71225,-1.701367 3.0534,-2.751082 0.34116,-1.049714 -7.84091,-12.883768 -11.3291,-11.831328 z"
       id="path21366" /><ellipse
       style="fill:#f7f7f7;fill-opacity:1;stroke:#000000;stroke-width:1.18149;stroke-linecap:round;stroke-dasharray:none;stroke-opacity:1;paint-order:markers fill stroke;stop-color:#000000"
       id="path16761"
       cx="-185.16321"
       cy="41.603836"
       rx="8.7384949"
       ry="6.5119519"
       transform="rotate(-138.5535)" /><path
       style="fill:none;fill-opacity:1;stroke:#000000;stroke-width:1.35506;stroke-linecap:round;stroke-dasharray:none;stroke-opacity:1;paint-order:markers fill stroke;stop-color:#000000"
       d="m 168.08141,85.143821 -3.14896,12.405027"
       id="path17511" /><path
       style="fill:none;fill-opacity:1;stroke:#000000;stroke-width:1.24;stroke-linecap:round;stroke-dasharray:none;stroke-opacity:1;paint-order:markers stroke fill;stop-color:#000000"
       d="m 169.06877,99.807328 c 0,0 1.80745,3.036512 6.61526,3.325702"
       id="path22553" /></g></svg>
